<svg id="Capa_1" data-name="Capa 1" xmlns="http://www.w3.org/2000/svg" viewBox="0 0 794 749"><defs><style>.cls-1{font-size:37.35px;fill:#fff;font-family:SFProDisplay-Light, SF Pro Display;font-weight:300;}</style></defs><text class="cls-1" transform="matrix(-0.02, -1, 1, -0.02, 209.26, 377.15)">D</text><text class="cls-1" transform="translate(209.3 345.18) rotate(-80.92)">O</text><text class="cls-1" transform="translate(215.76 311.73) rotate(-73.43)"> </text><text class="cls-1" transform="matrix(0.36, -0.93, 0.93, 0.36, 220.43, 297.15)">I</text><text class="cls-1" transform="matrix(0.47, -0.88, 0.88, 0.47, 225.85, 283.29)">T</text><text class="cls-1" transform="matrix(0.57, -0.82, 0.82, 0.57, 240.02, 258.35)"> </text><text class="cls-1" transform="matrix(0.66, -0.75, 0.75, 0.66, 248.61, 245.95)">B</text><text class="cls-1" transform="translate(268.41 224.42) rotate(-40.06)">E</text><text class="cls-1" transform="matrix(0.85, -0.52, 0.52, 0.85, 289.67, 207.17)">R</text><text class="cls-1" transform="translate(314.73 192.57) rotate(-22.78)">E</text><text class="cls-1" transform="translate(340.15 182.42) rotate(-14.15)">R</text><text class="cls-1" transform="translate(368.64 176.12) rotate(-7.41)"> </text><text class="cls-1" transform="matrix(1, -0.04, 0.04, 1, 383.86, 174.43)">.</text><text class="cls-1" transform="translate(398.47 174.02) rotate(1.67)"> </text><text class="cls-1" transform="translate(413.56 174.38) rotate(8.86)">D</text><text class="cls-1" transform="translate(445.06 179.84) rotate(18.89)">O</text><text class="cls-1" transform="translate(476.9 191.91) rotate(26.43)"> </text><text class="cls-1" transform="matrix(0.86, 0.52, -0.52, 0.86, 490.47, 199)">I</text><text class="cls-1" transform="matrix(0.79, 0.61, -0.61, 0.79, 503.19, 206.71)">T</text><text class="cls-1" transform="matrix(0.72, 0.69, -0.69, 0.72, 525.36, 224.98)"> </text><text class="cls-1" transform="translate(536.13 235.5) rotate(51.1)">B</text><text class="cls-1" transform="translate(554 258.63) rotate(59.76)">E</text><text class="cls-1" transform="translate(567.36 282.5) rotate(68.42)">R</text><text class="cls-1" transform="matrix(0.22, 0.97, -0.97, 0.22, 577.46, 309.71)">E</text><text class="cls-1" transform="translate(583.13 336.5) rotate(85.62)">R</text><text class="cls-1" transform="translate(584.51 365.65) rotate(92.33)"> </text><text class="cls-1" transform="translate(583.6 380.93) rotate(97.23)">.</text><text class="cls-1" transform="translate(581.53 395.4) rotate(101.43)"> </text><text class="cls-1" transform="translate(578.62 410.18) rotate(108.65)">D</text><text class="cls-1" transform="translate(567.89 440.3) rotate(118.74)">O</text><text class="cls-1" transform="matrix(-0.59, 0.81, -0.81, -0.59, 550.56, 469.59)"> </text><text class="cls-1" transform="translate(541.23 481.76) rotate(130.9)">I</text><text class="cls-1" transform="matrix(-0.74, 0.68, -0.68, -0.74, 531.45, 493)">T</text><text class="cls-1" transform="translate(509.77 511.78) rotate(144.11)"> </text><text class="cls-1" transform="matrix(-0.87, 0.49, -0.49, -0.87, 497.53, 520.62)">B</text><text class="cls-1" transform="translate(471.71 534.26) rotate(159.62)">E</text><text class="cls-1" transform="translate(445.86 543.35) rotate(168.24)">R</text><text class="cls-1" transform="translate(417.36 548.66) rotate(176.8)">E</text><text class="cls-1" transform="translate(389.98 549.71) rotate(-174.64)">R</text></svg>