<svg id="Capa_1" data-name="Capa 1" xmlns="http://www.w3.org/2000/svg" xmlns:xlink="http://www.w3.org/1999/xlink" viewBox="0 0 716 905"><defs><style>.cls-1,.cls-3{fill:none;}.cls-2{clip-path:url(#clip-path);}.cls-3{stroke:#fccf00;stroke-miterlimit:10;stroke-width:2px;}</style><clipPath id="clip-path"><rect class="cls-1" x="112.35" y="0.35" width="472.02" height="704.65" transform="translate(696.73 705.35) rotate(-180)"/></clipPath></defs><g class="cls-2"><path class="cls-3" d="M557.38,573.1s-199.54,225-421.52,0c0,0,189.56-231.28,421.52,0"/><path class="cls-3" d="M557.38,489.17s-199.54,225-421.52,0c0,0,189.56-231.28,421.52,0"/><path class="cls-3" d="M557.38,405.24s-199.54,225-421.52,0c0,0,189.56-231.28,421.52,0"/><path class="cls-3" d="M557.38,321.31s-199.54,225-421.52,0c0,0,189.56-231.28,421.52,0"/><path class="cls-3" d="M557.38,237.37s-199.54,225-421.52,0c0,0,189.56-231.27,421.52,0"/><path class="cls-3" d="M557.38,153.44s-199.54,225-421.52,0c0,0,189.56-231.28,421.52,0"/><path class="cls-3" d="M557.38,69.51s-199.54,225-421.52,0c0,0,189.56-231.28,421.52,0"/></g></svg>