<svg id="Capa_1" data-name="Capa 1" xmlns="http://www.w3.org/2000/svg" viewBox="0 0 716 905"><defs><style>.cls-1{fill:#191916;}</style></defs><path class="cls-1" d="M364.84,265.88l28-43.09a8.62,8.62,0,0,1,15.66,2.93L419,276a8.61,8.61,0,0,0,13.47,5.22l41.66-30.08a8.61,8.61,0,0,1,13.54,8.39l-8.35,50.7A8.62,8.62,0,0,0,490,320l49.71-13a8.61,8.61,0,0,1,9.6,12.7l-26.1,44.26a8.62,8.62,0,0,0,6.44,12.94l51.05,5.84A8.61,8.61,0,0,1,585.05,398l-40.32,31.84a8.61,8.61,0,0,0,1.33,14.39l45.49,23.89A8.61,8.61,0,0,1,590.08,484L541,499.13A8.61,8.61,0,0,0,537,513l33.79,38.71a8.62,8.62,0,0,1-7.1,14.26l-51.25-3.64a8.62,8.62,0,0,0-8.71,11.53l17.53,48.3a8.61,8.61,0,0,1-11.77,10.73L463,611a8.61,8.61,0,0,0-12.28,7.61L449.64,670a8.61,8.61,0,0,1-14.85,5.75l-35.42-37.22a8.62,8.62,0,0,0-14.21,2.66l-19.58,47.5a8.61,8.61,0,0,1-15.93,0l-19.59-47.5a8.61,8.61,0,0,0-14.2-2.66l-35.43,37.22A8.61,8.61,0,0,1,265.58,670l-1.1-51.37A8.62,8.62,0,0,0,252.19,611l-46.47,21.91A8.61,8.61,0,0,1,194,622.18l17.52-48.3a8.61,8.61,0,0,0-8.7-11.53L151.51,566a8.62,8.62,0,0,1-7.1-14.26L178.21,513a8.61,8.61,0,0,0-4-13.89L125.14,484a8.62,8.62,0,0,1-1.46-15.86l45.49-23.89a8.62,8.62,0,0,0,1.33-14.39L130.17,398a8.61,8.61,0,0,1,4.36-15.31l51.05-5.84A8.62,8.62,0,0,0,192,363.94l-26.1-44.26a8.6,8.6,0,0,1,9.59-12.7l49.72,13a8.61,8.61,0,0,0,10.67-9.73l-8.35-50.7a8.61,8.61,0,0,1,13.54-8.39l41.66,30.08A8.61,8.61,0,0,0,296.22,276l10.53-50.29a8.62,8.62,0,0,1,15.66-2.93l28,43.09A8.62,8.62,0,0,0,364.84,265.88Z"/></svg>