<svg id="Capa_1" data-name="Capa 1" xmlns="http://www.w3.org/2000/svg" viewBox="0 0 716 905"><defs><style>.cls-1{fill:#fccf00;}.cls-2{fill:none;stroke:#000;stroke-linecap:round;stroke-miterlimit:10;stroke-width:2px;}</style></defs><path class="cls-1" d="M322.91,288.85,340,246.8a7.61,7.61,0,0,1,14.07-.06l17.5,41.9a7.61,7.61,0,0,0,12.56,2.29l31.16-33a7.61,7.61,0,0,1,13.15,5l1.18,45.39A7.6,7.6,0,0,0,440.54,315l41-19.54A7.62,7.62,0,0,1,492,304.89l-15.3,42.75a7.61,7.61,0,0,0,7.74,10.16l45.28-3.42A7.61,7.61,0,0,1,536,367l-29.71,34.34a7.61,7.61,0,0,0,3.54,12.27l43.46,13.17a7.61,7.61,0,0,1,1.36,14L514.57,462a7.61,7.61,0,0,0-1.12,12.72l35.76,28a7.61,7.61,0,0,1-3.79,13.55l-45.09,5.36a7.62,7.62,0,0,0-5.64,11.46l23.24,39a7.61,7.61,0,0,1-8.43,11.27l-44-11.29a7.61,7.61,0,0,0-9.4,8.64l7.58,44.77A7.62,7.62,0,0,1,451.76,633l-36.93-26.42a7.62,7.62,0,0,0-11.89,4.67l-9.1,44.48A7.62,7.62,0,0,1,380,658.35l-24.89-38a7.62,7.62,0,0,0-12.77,0l-24.56,38.2a7.62,7.62,0,0,1-13.85-2.53l-9.5-44.4a7.61,7.61,0,0,0-11.93-4.56l-36.7,26.74a7.61,7.61,0,0,1-12-7.36L241,581.68a7.62,7.62,0,0,0-9.48-8.56L187.64,584.8a7.61,7.61,0,0,1-8.53-11.19L202,534.39a7.61,7.61,0,0,0-5.74-11.4l-45.13-5a7.61,7.61,0,0,1-3.92-13.52l35.52-28.3a7.61,7.61,0,0,0-1.24-12.71L141.2,442.57a7.61,7.61,0,0,1,1.23-14L185.77,415a7.6,7.6,0,0,0,3.44-12.29l-30-34.08A7.61,7.61,0,0,1,165.42,356l45.31,3a7.62,7.62,0,0,0,7.65-10.23L202.7,306.17a7.61,7.61,0,0,1,10.36-9.53l41.16,19.18A7.61,7.61,0,0,0,265,309.05l.78-45.4a7.61,7.61,0,0,1,13.1-5.15l31.45,32.76A7.61,7.61,0,0,0,322.91,288.85Z"/><path class="cls-2" d="M408.27,454a59.15,59.15,0,0,1-116.19,22.25"/><circle cx="285.63" cy="442.59" r="6.62"/><circle cx="401.82" cy="420.34" r="6.62"/></svg>