<svg id="Capa_1" data-name="Capa 1" xmlns="http://www.w3.org/2000/svg" viewBox="0 0 794 749"><defs><style>.cls-1{fill:#fccf00;}.cls-2{fill:#1d1d1b;}.cls-3{font-size:55.11px;font-family:SFProDisplay-Light, SF Pro Display;font-weight:300;}</style></defs><path class="cls-1" d="M687,287A262.67,262.67,0,0,1,542.83,523.92C413.35,589.4,255.28,537.56,189.77,408.08a261.42,261.42,0,0,1-28.35-117.29c0-1.28,0-2.52,0-3.79Z"/><path class="cls-2" d="M599.88,287a175.57,175.57,0,0,1-96.35,159.17C417,490,311.29,455.3,267.51,368.74a174.77,174.77,0,0,1-19-77.95c0-1.28,0-2.55,0-3.79Z"/><text class="cls-3" transform="matrix(0.39, 0.92, -0.92, 0.39, 218.24, 374.07)">w</text><text class="cls-3" transform="matrix(0.61, 0.8, -0.8, 0.61, 244.63, 428.24)">e</text><text class="cls-3" transform="translate(275.69 464.73) rotate(42.25)"> </text><text class="cls-3" transform="matrix(0.85, 0.52, -0.52, 0.85, 299.64, 485.12)">d</text><text class="cls-3" transform="translate(344.79 509.75) rotate(17.99)">o</text><text class="cls-3" transform="translate(392.04 522.26) rotate(7.28)"> </text><text class="cls-3" transform="matrix(1, -0.01, 0.01, 1, 422.04, 524.75)">i</text><text class="cls-3" transform="translate(451.23 523.3) rotate(-8.88)">t</text><text class="cls-3" transform="translate(485.4 516.32) rotate(-17.58)"> </text><text class="cls-3" transform="translate(515.11 505.82) rotate(-28.48)">b</text><text class="cls-3" transform="matrix(0.75, -0.67, 0.67, 0.75, 558.88, 479.12)">e</text><text class="cls-3" transform="matrix(0.6, -0.8, 0.8, 0.6, 593.13, 445.12)">r</text><text class="cls-3" transform="translate(613.3 416.34) rotate(-63.79)">e</text><text class="cls-3" transform="matrix(0.26, -0.97, 0.97, 0.26, 632.3, 371.91)">r</text><text class="cls-3" transform="translate(639.83 336.88) rotate(-84)"> </text><text class="cls-3" transform="translate(641.67 306.78) rotate(-91.89)"> </text><text class="cls-3" transform="translate(639.36 276.74) rotate(-99.83)"> </text><text class="cls-3" transform="translate(632.9 247.24) rotate(-107.87)"> </text><text class="cls-3" transform="matrix(-0.44, -0.9, 0.9, -0.44, 622.37, 218.92)"> </text><text class="cls-3" transform="translate(607.98 192.37) rotate(-123.97)"> </text></svg>